# xmcd
#
# Track frame offsets:
#	150
#	13381
#	27189
#	37525
#	45321
#	52049
#	66730
#	79639
#	90290
#	98926
#	109177
#
# Disc length: 1654 seconds
#
# Revision: 1
# Processed by: cddbd v1.5.2PL0 Copyright (c) Steve Scherf et al.
# Submitted via: audiograbber 1.83.01
#
DISCID=8206740b
DTITLE=World's Greatest Bluegrass Pickers - (no name)
DYEAR=2006
DGENRE=Bluegrass
TTITLE0=Osborne Bros-Unclounded Day
TTITLE1=Jim and Jesse-Somewhere Down South
TTITLE2=Osborne Bros-Lime Rock
TTITLE3=Merle Travis-Night Sounds
TTITLE4=Joe Maphis-Town Hall Rag
TTITLE5=Bobby Osborne/Benny Martin-East Nashville Robbery
TTITLE6=Josh Graves-Starlight Waltz
TTITLE7=Johnny Gamble-Ragtime Annie
TTITLE8=Fiddlin' Red Herron-Lell Broke Loose in Georgia
TTITLE9=Buddy Spicher/Benny Martin-Liberty
TTITLE10=Jim and Jesse-Farewell Blues
EXTD=
EXTT0=
EXTT1=
EXTT2=
EXTT3=
EXTT4=
EXTT5=
EXTT6=
EXTT7=
EXTT8=
EXTT9=
EXTT10=
PLAYORDER=
